<mxfile host="app.diagrams.net" modified="2020-11-17T12:37:34.071Z" agent="5.0 (Macintosh; Intel Mac OS X 10_15_1) AppleWebKit/537.36 (KHTML, like Gecko) Chrome/86.0.4240.198 Safari/537.36" etag="UHjZ4_bh7kP-Z1hOWMoI" version="13.9.7" type="github">
  <diagram id="C5RBs43oDa-KdzZeNtuy" name="Page-1">
    <mxGraphModel dx="946" dy="507" grid="1" gridSize="10" guides="1" tooltips="1" connect="1" arrows="1" fold="1" page="1" pageScale="1" pageWidth="827" pageHeight="1169" math="0" shadow="0">
      <root>
        <mxCell id="WIyWlLk6GJQsqaUBKTNV-0" />
        <mxCell id="WIyWlLk6GJQsqaUBKTNV-1" parent="WIyWlLk6GJQsqaUBKTNV-0" />
        <mxCell id="MDIC15XsDTmA-gibUrlv-1" value="需求分析" style="swimlane;startSize=20;" vertex="1" parent="WIyWlLk6GJQsqaUBKTNV-1">
          <mxGeometry x="170" y="70" width="120" height="320" as="geometry" />
        </mxCell>
        <mxCell id="MDIC15XsDTmA-gibUrlv-11" style="edgeStyle=orthogonalEdgeStyle;rounded=0;orthogonalLoop=1;jettySize=auto;html=1;entryX=0.5;entryY=0;entryDx=0;entryDy=0;" edge="1" parent="MDIC15XsDTmA-gibUrlv-1" source="MDIC15XsDTmA-gibUrlv-6" target="MDIC15XsDTmA-gibUrlv-9">
          <mxGeometry relative="1" as="geometry" />
        </mxCell>
        <mxCell id="MDIC15XsDTmA-gibUrlv-6" value="方案评审" style="rounded=1;whiteSpace=wrap;html=1;absoluteArcSize=1;arcSize=14;strokeWidth=2;" vertex="1" parent="MDIC15XsDTmA-gibUrlv-1">
          <mxGeometry x="20" y="40" width="80" height="40" as="geometry" />
        </mxCell>
        <mxCell id="MDIC15XsDTmA-gibUrlv-9" value="创建pdm" style="rounded=1;whiteSpace=wrap;html=1;absoluteArcSize=1;arcSize=14;strokeWidth=2;" vertex="1" parent="MDIC15XsDTmA-gibUrlv-1">
          <mxGeometry x="20" y="120" width="80" height="40" as="geometry" />
        </mxCell>
        <mxCell id="MDIC15XsDTmA-gibUrlv-2" value="测试" style="swimlane;startSize=20;" vertex="1" parent="WIyWlLk6GJQsqaUBKTNV-1">
          <mxGeometry x="290" y="70" width="120" height="320" as="geometry" />
        </mxCell>
        <mxCell id="MDIC15XsDTmA-gibUrlv-3" value="发布生产" style="swimlane;startSize=20;" vertex="1" parent="WIyWlLk6GJQsqaUBKTNV-1">
          <mxGeometry x="410" y="70" width="120" height="320" as="geometry" />
        </mxCell>
        <mxCell id="MDIC15XsDTmA-gibUrlv-4" value="bug追踪" style="swimlane;startSize=20;" vertex="1" parent="WIyWlLk6GJQsqaUBKTNV-1">
          <mxGeometry x="530" y="70" width="120" height="320" as="geometry" />
        </mxCell>
        <mxCell id="MDIC15XsDTmA-gibUrlv-7" style="edgeStyle=orthogonalEdgeStyle;rounded=0;orthogonalLoop=1;jettySize=auto;html=1;" edge="1" parent="WIyWlLk6GJQsqaUBKTNV-1" source="MDIC15XsDTmA-gibUrlv-5" target="MDIC15XsDTmA-gibUrlv-6">
          <mxGeometry relative="1" as="geometry" />
        </mxCell>
        <mxCell id="MDIC15XsDTmA-gibUrlv-5" value="需求管理" style="strokeWidth=2;html=1;shape=mxgraph.flowchart.start_1;whiteSpace=wrap;" vertex="1" parent="WIyWlLk6GJQsqaUBKTNV-1">
          <mxGeometry x="60" y="110" width="80" height="40" as="geometry" />
        </mxCell>
      </root>
    </mxGraphModel>
  </diagram>
</mxfile>
